<svg width="22" height="29" viewBox="0 0 22 29" fill="none" xmlns="http://www.w3.org/2000/svg">
<mask id="path-1-outside-1_345_584" maskUnits="userSpaceOnUse" x="0" y="-0.5" width="22" height="29" fill="black">
<rect fill="white" y="-0.5" width="22" height="29"/>
<path fill-rule="evenodd" clip-rule="evenodd" d="M12.667 22.5568C16.3721 18.0829 19.1333 14.7487 19.1333 10.75C19.1333 6.19365 15.5218 2.5 11.0667 2.5C6.61157 2.5 3 6.19365 3 10.75C3 14.7487 5.76127 18.0829 9.46634 22.5568C9.98307 23.1807 10.5182 23.8268 11.0667 24.5C11.6152 23.8268 12.1503 23.1807 12.667 22.5568ZM11.0653 15.3292C13.5403 15.3292 15.5468 13.2772 15.5468 10.7459C15.5468 8.2146 13.5403 6.16257 11.0653 6.16257C8.59023 6.16257 6.5838 8.2146 6.5838 10.7459C6.5838 13.2772 8.59023 15.3292 11.0653 15.3292Z"/>
</mask>
<path d="M12.667 22.5568L14.5924 24.1513H14.5924L12.667 22.5568ZM9.46634 22.5568L7.5409 24.1513L9.46634 22.5568ZM11.0667 24.5L9.12858 26.0792L11.0667 28.4577L13.0048 26.0792L11.0667 24.5ZM16.6333 10.75C16.6333 12.1332 16.1671 13.5132 15.1548 15.1742C14.1149 16.8804 12.6289 18.6832 10.7415 20.9622L14.5924 24.1513C16.4102 21.9564 18.1573 19.8552 19.4243 17.7762C20.719 15.652 21.6333 13.3654 21.6333 10.75H16.6333ZM11.0667 5C14.0884 5 16.6333 7.5211 16.6333 10.75H21.6333C21.6333 4.8662 16.9551 0 11.0667 0V5ZM5.5 10.75C5.5 7.5211 8.04495 5 11.0667 5V0C5.17819 0 0.5 4.8662 0.5 10.75H5.5ZM11.3918 20.9622C9.50445 18.6832 8.01845 16.8804 6.97856 15.1742C5.96627 13.5132 5.5 12.1332 5.5 10.75H0.5C0.5 13.3654 1.41437 15.652 2.70899 17.7762C3.976 19.8552 5.72317 21.9564 7.5409 24.1513L11.3918 20.9622ZM13.0048 22.9208C12.449 22.2387 11.9077 21.5851 11.3918 20.9622L7.5409 24.1513C8.05847 24.7763 8.58733 25.4149 9.12858 26.0792L13.0048 22.9208ZM10.7415 20.9622C10.2257 21.5851 9.68435 22.2387 9.12858 22.9208L13.0048 26.0792C13.546 25.4149 14.0749 24.7763 14.5924 24.1513L10.7415 20.9622ZM13.0468 10.7459C13.0468 11.9498 12.107 12.8292 11.0653 12.8292V17.8292C14.9737 17.8292 18.0468 14.6047 18.0468 10.7459H13.0468ZM11.0653 8.66257C12.107 8.66257 13.0468 9.54205 13.0468 10.7459H18.0468C18.0468 6.88715 14.9737 3.66257 11.0653 3.66257V8.66257ZM9.0838 10.7459C9.0838 9.54205 10.0236 8.66257 11.0653 8.66257V3.66257C7.15685 3.66257 4.0838 6.88715 4.0838 10.7459H9.0838ZM11.0653 12.8292C10.0236 12.8292 9.0838 11.9498 9.0838 10.7459H4.0838C4.0838 14.6047 7.15685 17.8292 11.0653 17.8292V12.8292Z" fill="#2D2C3C" mask="url(#path-1-outside-1_345_584)"/>
</svg>
