<svg width="6" height="7" viewBox="0 0 6 7" fill="none" xmlns="http://www.w3.org/2000/svg">
<path d="M2.88926 0.541992C2.52461 0.541992 2.16354 0.613814 1.82666 0.753356C1.48977 0.892899 1.18367 1.09743 0.925827 1.35527C0.405094 1.876 0.112549 2.58227 0.112549 3.3187C0.112549 4.05513 0.405094 4.76139 0.925827 5.28213C1.18367 5.53997 1.48977 5.7445 1.82666 5.88404C2.16354 6.02358 2.52461 6.09541 2.88926 6.09541C3.62568 6.09541 4.33195 5.80286 4.85268 5.28213C5.37342 4.76139 5.66596 4.05513 5.66596 3.3187C5.66596 2.95406 5.59414 2.59298 5.4546 2.2561C5.31506 1.91921 5.11052 1.61311 4.85268 1.35527C4.59484 1.09743 4.28874 0.892899 3.95186 0.753356C3.61497 0.613814 3.2539 0.541992 2.88926 0.541992V0.541992ZM1.52034 5.06247C1.63974 4.81257 2.36723 4.56822 2.88926 4.56822C3.41128 4.56822 4.13877 4.81257 4.25817 5.06247C3.88054 5.36235 3.40572 5.54006 2.88926 5.54006C2.37279 5.54006 1.89797 5.36235 1.52034 5.06247ZM4.65524 4.65985C4.25817 4.1767 3.29465 4.01288 2.88926 4.01288C2.48386 4.01288 1.52034 4.1767 1.12327 4.65985C0.840046 4.29055 0.66789 3.82406 0.66789 3.3187C0.66789 2.09417 1.66473 1.09733 2.88926 1.09733C4.11378 1.09733 5.11062 2.09417 5.11062 3.3187C5.11062 3.82406 4.93846 4.29055 4.65524 4.65985ZM2.88926 1.65267C2.35057 1.65267 1.91741 2.08584 1.91741 2.62452C1.91741 3.1632 2.35057 3.59637 2.88926 3.59637C3.42794 3.59637 3.8611 3.1632 3.8611 2.62452C3.8611 2.08584 3.42794 1.65267 2.88926 1.65267ZM2.88926 3.04103C2.77879 3.04103 2.67285 2.99715 2.59474 2.91904C2.51663 2.84093 2.47275 2.73499 2.47275 2.62452C2.47275 2.51406 2.51663 2.40812 2.59474 2.33001C2.67285 2.2519 2.77879 2.20802 2.88926 2.20802C2.99972 2.20802 3.10566 2.2519 3.18377 2.33001C3.26188 2.40812 3.30576 2.51406 3.30576 2.62452C3.30576 2.73499 3.26188 2.84093 3.18377 2.91904C3.10566 2.99715 2.99972 3.04103 2.88926 3.04103Z" fill="white"/>
</svg>
