<svg width="7" height="6" viewBox="0 0 7 6" fill="none" xmlns="http://www.w3.org/2000/svg">
<path d="M3.12957 2.31804C3.74322 2.31804 4.24025 1.82101 4.24025 1.20736C4.24025 0.59371 3.74322 0.0966797 3.12957 0.0966797C2.51592 0.0966797 2.01889 0.59371 2.01889 1.20736C2.01889 1.82101 2.51592 2.31804 3.12957 2.31804ZM3.12957 0.652021C3.43778 0.652021 3.68491 0.901925 3.68491 1.20736C3.68491 1.5128 3.43778 1.7627 3.12957 1.7627C2.82135 1.7627 2.57423 1.51558 2.57423 1.20736C2.57423 0.899148 2.82413 0.652021 3.12957 0.652021ZM3.12957 2.59572C2.38819 2.59572 0.908203 2.96502 0.908203 3.7064V4.53941H3.98757C3.98202 4.50054 3.97646 4.46444 3.97369 4.42557C3.96258 4.37281 3.96258 4.31727 3.96258 4.26174C3.96258 4.17566 3.97091 4.09236 3.98479 4.01184C4.02089 3.76471 4.11252 3.53424 4.24025 3.33432C4.29856 3.25657 4.35687 3.18438 4.42074 3.11774L4.42629 3.10941C4.49015 3.04277 4.56235 2.98168 4.63732 2.92614C4.45128 2.84007 4.24025 2.77342 4.03477 2.72067C3.70435 2.63737 3.3767 2.59572 3.12957 2.59572ZM3.42112 4.01184H1.43578V3.7064C1.43578 3.52869 2.30489 3.12329 3.12957 3.12329C3.31838 3.12329 3.5072 3.15106 3.68491 3.1816C3.54607 3.42873 3.45722 3.7064 3.42112 4.01184ZM6.46162 3.98407H5.90627V5.09475H5.35093V3.98407H4.79559L5.6286 3.15106L6.46162 3.98407Z" fill="black"/>
</svg>
