<svg width="17" height="13" viewBox="0 0 17 13" fill="none" xmlns="http://www.w3.org/2000/svg">
<path d="M0.250003 6.36218C0.357354 6.42729 0.489491 6.46196 0.625003 6.46057C0.722031 6.46057 0.817726 6.44279 0.904511 6.40863C0.991296 6.37448 1.06679 6.32489 1.125 6.26379C1.50295 5.86744 1.99276 5.54567 2.55576 5.32386C3.11877 5.10205 3.73956 4.98628 4.36915 4.98569C4.99873 4.98509 5.61988 5.09968 6.18356 5.32042C6.74724 5.54116 7.23803 5.86201 7.61719 6.25764L7.66406 6.30068H7.67188C7.67969 6.31298 7.69531 6.31913 7.71094 6.33143H7.72657L7.75 6.34988H7.75782C7.77937 6.36427 7.80296 6.37665 7.82813 6.38678L7.85156 6.39908L7.92188 6.42368H7.94531L8.00781 6.43597H8.26563L8.39844 6.39908H8.41406L8.45313 6.38063L8.47656 6.36833L8.5 6.35603C8.50207 6.35603 8.50406 6.35538 8.50553 6.35423C8.50699 6.35308 8.50781 6.35151 8.50781 6.34988L8.53125 6.33758L8.57031 6.30683H8.57813L8.625 6.26994C9.00341 5.87278 9.4941 5.55043 10.0582 5.32842C10.6223 5.1064 11.2443 4.99082 11.875 4.99082C12.5057 4.99082 13.1277 5.1064 13.6918 5.32842C14.2559 5.55043 14.7466 5.87278 15.125 6.26994C15.2257 6.37296 15.3736 6.44093 15.5371 6.45931C15.7005 6.47769 15.8667 6.44504 16 6.36833C16.0657 6.32957 16.121 6.281 16.1628 6.22541C16.2046 6.16982 16.2321 6.10829 16.2437 6.04433C16.2553 5.98037 16.2508 5.91524 16.2304 5.85266C16.2101 5.79007 16.1742 5.73126 16.125 5.67957C15.5729 5.09288 14.8347 4.63059 13.9844 4.33896C14.4491 4.00428 14.7745 3.56686 14.9179 3.08406C15.0613 2.60125 15.016 2.09561 14.788 1.63343C14.5599 1.17124 14.1597 0.7741 13.6399 0.494073C13.1201 0.214047 12.5049 0.064209 11.875 0.064209C11.2451 0.064209 10.6299 0.214047 10.1101 0.494073C9.59027 0.7741 9.19009 1.17124 8.96202 1.63343C8.73396 2.09561 8.68866 2.60125 8.83206 3.08406C8.97547 3.56686 9.30088 4.00428 9.76563 4.33896C9.15351 4.54849 8.59695 4.84681 8.125 5.21835C7.65305 4.84681 7.09649 4.54849 6.48438 4.33896C6.94913 4.00428 7.27454 3.56686 7.41794 3.08406C7.56134 2.60125 7.51604 2.09561 7.28798 1.63343C7.05992 1.17124 6.65974 0.7741 6.13991 0.494073C5.62009 0.214047 5.0049 0.064209 4.375 0.064209C3.74511 0.064209 3.12991 0.214047 2.61009 0.494073C2.09027 0.7741 1.69009 1.17124 1.46202 1.63343C1.23396 2.09561 1.18866 2.60125 1.33206 3.08406C1.47547 3.56686 1.80088 4.00428 2.26563 4.33896C1.41618 4.62888 0.678118 5.08899 0.125003 5.67342C0.0757569 5.72511 0.0399262 5.78392 0.0195564 5.84651C-0.000813308 5.90909 -0.0053232 5.97422 0.00628412 6.03818C0.0178914 6.10214 0.0453888 6.16367 0.0872061 6.21926C0.129023 6.27485 0.184342 6.32342 0.250003 6.36218ZM10 2.52483C10 2.23292 10.11 1.94757 10.316 1.70486C10.522 1.46215 10.8149 1.27298 11.1575 1.16127C11.5001 1.04957 11.8771 1.02034 12.2408 1.07729C12.6045 1.13423 12.9386 1.2748 13.2008 1.48121C13.4631 1.68762 13.6416 1.9506 13.714 2.2369C13.7863 2.52319 13.7492 2.81995 13.6073 3.08963C13.4654 3.35932 13.225 3.58982 12.9167 3.752C12.6084 3.91417 12.2458 4.00073 11.875 4.00073C11.3784 3.99911 10.9026 3.8431 10.5514 3.56666C10.2003 3.29023 10.0021 2.91577 10 2.52483V2.52483ZM2.5 2.52483C2.5 2.23292 2.60997 1.94757 2.816 1.70486C3.02202 1.46215 3.31486 1.27298 3.65747 1.16127C4.00008 1.04957 4.37708 1.02034 4.7408 1.07729C5.10451 1.13423 5.4386 1.2748 5.70083 1.48121C5.96305 1.68762 6.14163 1.9506 6.21397 2.2369C6.28632 2.52319 6.24919 2.81995 6.10728 3.08963C5.96536 3.35932 5.72504 3.58982 5.4167 3.752C5.10835 3.91417 4.74584 4.00073 4.375 4.00073C3.87836 3.99911 3.40264 3.8431 3.05145 3.56666C2.70026 3.29023 2.50206 2.91577 2.5 2.52483V2.52483ZM13.9844 10.7345C14.4491 10.3999 14.7745 9.96244 14.9179 9.47964C15.0613 8.99684 15.016 8.49119 14.788 8.02901C14.5599 7.56683 14.1597 7.16968 13.6399 6.88966C13.1201 6.60963 12.5049 6.45979 11.875 6.45979C11.2451 6.45979 10.6299 6.60963 10.1101 6.88966C9.59027 7.16968 9.19009 7.56683 8.96202 8.02901C8.73396 8.49119 8.68866 8.99684 8.83206 9.47964C8.97547 9.96244 9.30088 10.3999 9.76563 10.7345C9.15351 10.9441 8.59695 11.2424 8.125 11.6139C7.65305 11.2424 7.09649 10.9441 6.48438 10.7345C6.94913 10.3999 7.27454 9.96244 7.41794 9.47964C7.56134 8.99684 7.51604 8.49119 7.28798 8.02901C7.05992 7.56683 6.65974 7.16968 6.13991 6.88966C5.62009 6.60963 5.0049 6.45979 4.375 6.45979C3.74511 6.45979 3.12991 6.60963 2.61009 6.88966C2.09027 7.16968 1.69009 7.56683 1.46202 8.02901C1.23396 8.49119 1.18866 8.99684 1.33206 9.47964C1.47547 9.96244 1.80088 10.3999 2.26563 10.7345C1.41618 11.0245 0.678118 11.4846 0.125003 12.069C0.0255464 12.1734 -0.0171579 12.3046 0.00628412 12.4338C0.0297262 12.5629 0.117394 12.6795 0.250003 12.7578C0.357354 12.8229 0.489491 12.8575 0.625003 12.8562C0.722031 12.8562 0.817726 12.8384 0.904511 12.8042C0.991296 12.7701 1.06679 12.7205 1.125 12.6594C1.50295 12.263 1.99276 11.9413 2.55576 11.7194C3.11877 11.4976 3.73956 11.3819 4.36915 11.3813C4.99873 11.3807 5.61988 11.4953 6.18356 11.716C6.74724 11.9367 7.23803 12.2576 7.61719 12.6532L7.66406 12.6963H7.67188L7.71094 12.727H7.72657L7.75 12.7455H7.75782L7.82813 12.7824L7.85156 12.7947L7.92188 12.8193H7.94531L8.00781 12.8316H8.27344L8.32813 12.8131H8.33594L8.39844 12.7947H8.41406L8.45313 12.7762L8.47656 12.7639L8.5 12.7516H8.50781L8.53125 12.7393L8.57031 12.7086H8.57813L8.625 12.6717C9.00341 12.2745 9.4941 11.9522 10.0582 11.7302C10.6223 11.5081 11.2443 11.3926 11.875 11.3926C12.5057 11.3926 13.1277 11.5081 13.6918 11.7302C14.2559 11.9522 14.7466 12.2745 15.125 12.6717C15.2257 12.7747 15.3736 12.8427 15.5371 12.861C15.7005 12.8794 15.8667 12.8468 16 12.7701C16.0657 12.7313 16.121 12.6827 16.1628 12.6271C16.2046 12.5715 16.2321 12.51 16.2437 12.4461C16.2553 12.3821 16.2508 12.317 16.2304 12.2544C16.2101 12.1918 16.1742 12.133 16.125 12.0813C15.5739 11.4924 14.8356 11.0279 13.9844 10.7345V10.7345ZM2.5 8.92041C2.5 8.62851 2.60997 8.34316 2.816 8.10044C3.02202 7.85773 3.31486 7.66856 3.65747 7.55685C4.00008 7.44515 4.37708 7.41592 4.7408 7.47287C5.10451 7.52982 5.4386 7.67038 5.70083 7.87679C5.96305 8.0832 6.14163 8.34618 6.21397 8.63248C6.28632 8.91877 6.24919 9.21553 6.10728 9.48522C5.96536 9.7549 5.72504 9.98541 5.4167 10.1476C5.10835 10.3098 4.74584 10.3963 4.375 10.3963C3.87836 10.3947 3.40264 10.2387 3.05145 9.96225C2.70026 9.68581 2.50206 9.31135 2.5 8.92041V8.92041ZM10 8.92041C10 8.62851 10.11 8.34316 10.316 8.10044C10.522 7.85773 10.8149 7.66856 11.1575 7.55685C11.5001 7.44515 11.8771 7.41592 12.2408 7.47287C12.6045 7.52982 12.9386 7.67038 13.2008 7.87679C13.4631 8.0832 13.6416 8.34618 13.714 8.63248C13.7863 8.91877 13.7492 9.21553 13.6073 9.48522C13.4654 9.7549 13.225 9.98541 12.9167 10.1476C12.6084 10.3098 12.2458 10.3963 11.875 10.3963C11.3784 10.3947 10.9026 10.2387 10.5514 9.96225C10.2003 9.68581 10.0021 9.31135 10 8.92041Z" fill="black"/>
</svg>
