<svg width="17" height="15" viewBox="0 0 17 15" fill="none" xmlns="http://www.w3.org/2000/svg">
<path d="M0.75 0.24707V13.0382H10.75V12.0543H2V1.23101H8.25V4.18281H12V5.16675H13.25V3.49406L13.0625 3.34647L9.3125 0.394661L9.125 0.24707H0.75V0.24707ZM9.5 1.91976L11.125 3.19888H9.5V1.91976ZM3.25 5.16675V6.15068H10.75V5.16675H3.25ZM13.875 6.15068V7.13462C12.8125 7.28221 12 7.97097 12 8.85651C12 9.84044 12.9375 10.5784 14.1875 10.5784H14.8125C15.3125 10.5784 15.75 10.9228 15.75 11.3163C15.75 11.7099 15.3125 12.0543 14.8125 12.0543H12.625V13.0382H13.875V14.0222H15.125V13.0382C16.1875 12.8906 17 12.2019 17 11.3163C17 10.3324 16.0625 9.59446 14.8125 9.59446H14.1875C13.6875 9.59446 13.25 9.25008 13.25 8.85651C13.25 8.46293 13.6875 8.11856 14.1875 8.11856H16.375V7.13462H15.125V6.15068H13.875ZM3.25 7.62659V8.61052H7.625V7.62659H3.25ZM8.875 7.62659V8.61052H10.75V7.62659H8.875ZM3.25 9.59446V10.5784H7.625V9.59446H3.25ZM8.875 9.59446V10.5784H10.75V9.59446H8.875Z" fill="black"/>
</svg>
