<svg version="1.1" id="Layer_1" xmlns="http://www.w3.org/2000/svg" xmlns:xlink="http://www.w3.org/1999/xlink" x="0px" y="0px"
	 width="100%" viewBox="0 0 992 736" enable-background="new 0 0 992 736" xml:space="preserve">
<path fill="#000000" opacity="1.000000" stroke="none" 
	d="
M283.571533,1.000000 
	C283.353821,21.732069 285.782196,41.921238 295.713928,60.503014 
	C301.707703,71.717041 303.580292,83.411079 303.532959,96.071426 
	C303.439728,121.017929 304.307159,145.975769 305.185303,170.914551 
	C305.565857,181.722137 302.734436,191.689072 298.870605,201.450760 
	C290.104584,223.597656 286.109253,246.533325 287.413544,270.275513 
	C287.931213,279.698822 290.699097,288.898834 290.427673,298.490540 
	C290.182861,307.142792 287.521393,314.868347 282.790894,321.881348 
	C277.059326,330.378387 265.827972,334.039551 255.819931,331.360504 
	C242.966461,327.919678 230.848633,322.027191 217.615036,319.890411 
	C199.925919,317.034180 182.211182,314.953369 164.989288,322.115326 
	C150.168182,328.278900 140.778000,339.840149 134.215408,354.059052 
	C128.385742,366.689911 126.388718,379.896118 129.314529,393.491913 
	C131.841263,405.233337 140.910538,411.626740 150.653656,417.088989 
	C152.301819,418.013031 154.592422,417.343231 154.324966,415.315247 
	C153.902161,412.109436 154.990814,408.989594 154.460693,405.927094 
	C152.104126,392.312469 159.606705,382.828308 173.566544,382.837921 
	C179.695435,382.842163 185.390198,382.414185 190.773895,379.195282 
	C195.467087,376.389191 199.404755,378.121185 202.542480,382.108551 
	C206.828522,387.555206 210.100281,393.673950 214.979126,398.802917 
	C219.252777,403.295624 217.665146,414.800964 213.258774,419.579376 
	C209.711197,423.426453 210.488983,427.677826 214.993759,430.170776 
	C220.513474,433.225403 225.729980,433.265137 231.632355,430.619568 
	C238.431152,427.572235 246.088867,428.979218 253.346146,428.202728 
	C259.107147,427.586304 265.029510,428.505859 270.623474,426.260284 
	C271.212036,426.024017 271.993317,425.910522 272.582489,426.085571 
	C287.002686,430.370422 302.078308,426.025848 316.621918,429.501862 
	C321.116028,430.575958 325.297394,427.739899 328.967346,425.019073 
	C330.076050,424.197113 331.006836,422.948792 329.735413,421.640778 
	C327.632019,419.476837 328.506348,416.506104 327.529785,414.182831 
	C322.827271,402.995361 331.640503,393.333893 341.981201,388.984650 
	C349.345520,385.887299 357.267853,384.705231 364.955322,382.934479 
	C375.684509,380.463074 389.866364,389.721832 389.714813,400.536285 
	C389.546173,412.570831 391.295868,426.504669 378.106476,434.614532 
	C376.334564,440.650940 368.092224,442.873169 368.910889,450.602112 
	C369.166504,453.015198 362.326080,455.239532 358.535034,453.852264 
	C349.069885,450.388611 339.285980,451.473602 329.982819,453.150879 
	C308.312927,457.057831 286.616699,460.173309 264.584717,460.180206 
	C231.268143,460.190674 199.484818,453.396698 169.726715,438.017792 
	C165.370499,435.766510 161.358826,433.058533 158.513550,429.066315 
	C156.056747,425.619141 151.979584,425.275055 148.727432,423.527924 
	C127.919136,412.349396 118.526596,395.660492 122.724945,372.027588 
	C127.212379,346.767456 139.196106,326.713593 163.458267,316.017639 
	C177.757401,309.713898 192.944550,310.168243 208.184235,312.082123 
	C223.013596,313.944458 236.862350,319.180206 250.955750,323.662140 
	C268.319763,329.184235 278.319366,323.298370 283.094421,305.788208 
	C285.242706,297.910400 285.002502,290.027588 283.226074,282.559875 
	C278.520752,262.779449 281.578339,243.553833 285.545044,224.248520 
	C287.665588,213.928131 291.303711,204.098862 295.241791,194.378540 
	C297.849884,187.940964 298.855652,181.299637 298.853821,174.390594 
	C298.846741,147.746567 297.885284,121.119118 297.558075,94.488159 
	C297.428162,83.918861 295.358582,74.457626 290.573181,65.311279 
	C280.167328,45.422642 277.100342,24.049389 277.901367,1.459878 
	C279.714355,1.000000 281.428711,1.000000 283.571533,1.000000 
M189.672821,415.861084 
	C189.973694,414.017426 190.289780,411.947235 187.902924,411.436707 
	C185.547562,410.932861 182.806290,410.279083 180.838257,412.127014 
	C179.028198,413.826599 180.591812,415.868713 181.400925,417.571045 
	C183.050659,421.041962 185.347672,420.720337 189.672821,415.861084 
z"/>
<path fill="#000000" opacity="1.000000" stroke="none" 
	d="
M870.012573,363.041138 
	C868.892822,368.940826 867.351746,374.291290 866.875244,379.981415 
	C866.303528,386.808960 859.867432,390.209961 855.717590,394.800201 
	C853.567993,397.178009 851.365540,399.630188 847.610229,400.902588 
	C837.955566,404.173737 831.438293,400.882751 826.204163,393.166168 
	C820.924377,385.382233 816.568176,377.130005 815.813171,367.565979 
	C814.700745,353.473694 818.514343,352.591217 829.466125,346.972229 
	C832.374146,345.480255 833.350952,344.030975 832.703918,341.370331 
	C831.827148,337.765015 831.530090,333.959320 827.682739,331.585724 
	C819.680664,326.648956 815.334900,318.230499 809.243591,311.460388 
	C801.483398,302.835266 796.507568,292.216034 788.761536,283.623810 
	C785.902100,280.451996 783.954102,276.863983 783.032776,272.691864 
	C781.861511,267.388153 778.042664,264.569672 773.306580,262.851166 
	C769.876831,261.606689 766.963684,263.607971 766.020630,267.510284 
	C763.868408,276.416229 756.521118,281.242432 747.272156,280.515656 
	C743.020386,280.181549 738.678528,281.040985 734.374573,281.311401 
	C729.707825,281.604645 726.776062,279.538147 725.654480,274.910645 
	C724.474060,270.040710 722.396973,265.801025 719.076294,261.781281 
	C711.872864,253.061417 711.926270,247.447800 718.519287,238.340469 
	C720.928223,235.012939 725.669861,234.306488 728.222839,230.886551 
	C728.788696,230.128601 729.660339,229.598953 730.203369,229.127319 
	C730.351257,227.628372 729.738770,226.745468 728.816772,226.358551 
	C719.724548,222.542877 710.316772,219.906448 700.972229,224.799500 
	C678.991150,236.309280 666.472290,262.549988 671.528992,286.794403 
	C673.608643,296.765869 679.479126,305.012360 686.134399,312.629913 
	C696.446472,324.433136 708.715942,333.754669 722.282471,341.481323 
	C729.109131,345.369324 735.086121,350.326630 737.151245,358.213654 
	C740.408386,370.652832 733.760620,379.648468 725.589600,387.718597 
	C720.332031,392.911316 713.493225,395.943146 707.387573,399.977417 
	C702.588623,403.148315 698.583923,407.031586 695.319336,411.765381 
	C688.280029,421.972443 690.151855,432.984406 700.409790,439.994598 
	C710.167175,446.662659 720.629578,452.333923 729.501526,460.248962 
	C743.131714,472.408966 754.746582,485.806152 757.855957,504.790222 
	C761.806335,528.909241 744.631531,560.399292 722.083862,569.701965 
	C716.326050,572.077393 710.025452,572.311951 704.358643,570.905640 
	C691.724609,567.770264 678.875244,564.640015 666.997253,559.475525 
	C624.341125,540.929321 596.255310,507.240479 574.628601,467.435822 
	C570.142273,459.178558 564.854858,451.620392 559.278442,444.149689 
	C556.849976,440.896332 552.282715,440.321503 550.510803,436.272278 
	C549.363159,433.649750 548.390015,431.920380 551.238159,429.432831 
	C555.252869,425.926361 555.396057,419.878754 555.248047,415.628510 
	C554.884521,405.190643 561.496887,399.541718 567.479675,393.249054 
	C569.872498,390.732208 572.196411,388.145508 576.341003,387.374847 
	C587.083923,385.377228 590.776917,386.481628 596.931885,395.551483 
	C603.133606,404.690216 607.123596,414.606659 607.293701,425.810913 
	C607.380859,431.550720 605.072021,435.846771 599.488831,437.888428 
	C596.696228,438.909607 594.640930,441.393799 591.391907,441.578766 
	C589.859924,441.665985 589.307922,443.310852 589.568359,444.678558 
	C590.338501,448.722687 590.900146,452.791199 593.837646,456.143921 
	C600.659424,463.930176 609.590698,469.901031 614.152771,479.636688 
	C621.205139,481.845795 621.766846,488.994781 624.942505,494.085205 
	C627.564453,498.287964 631.743896,500.894226 634.622681,504.793610 
	C637.126343,508.184998 639.473633,511.526886 640.125793,515.822937 
	C640.573975,518.775024 642.403992,520.964905 644.595764,522.843750 
	C650.365417,527.789551 656.046631,525.936340 657.667969,518.604858 
	C658.665588,514.093323 666.435669,507.731171 671.275391,507.679779 
	C676.766113,507.621429 682.226562,507.740082 687.723999,507.030304 
	C693.549133,506.278168 696.206055,508.467133 697.694641,514.241455 
	C698.827393,518.635071 700.511108,522.520020 703.645447,526.077759 
	C710.740723,534.131592 710.909790,541.500854 704.574707,549.998657 
	C702.096558,553.322876 697.713989,554.403015 694.648499,557.279846 
	C691.883179,559.875000 692.141357,561.601318 695.248413,562.752075 
	C704.484497,566.173096 713.846497,568.036133 723.174683,562.933716 
	C743.870911,551.613220 756.365479,525.170471 751.656128,502.289551 
	C750.017395,494.326996 746.115112,487.302551 741.126526,480.971344 
	C730.595032,467.605499 717.909851,456.696350 703.073120,448.310059 
	C699.151367,446.093323 695.292236,443.694458 692.118042,440.490082 
	C684.200012,432.496735 682.970947,422.984863 688.138977,412.565948 
	C692.641235,403.489441 700.208862,397.614410 708.743225,392.819122 
	C716.544861,388.435577 723.565674,383.335876 728.341248,375.493042 
	C734.396484,365.548553 732.598572,355.586517 723.021912,348.888336 
	C714.974670,343.259857 706.662720,338.007812 698.655518,332.324860 
	C690.164490,326.298615 683.143799,318.712677 676.903809,310.417297 
	C662.042175,290.660522 661.350708,269.669464 671.774231,247.866165 
	C675.927246,239.179245 682.039246,231.966980 689.412903,225.773941 
	C699.022583,217.702850 709.865479,214.870956 722.054260,218.034943 
	C731.786072,220.561172 741.412048,223.702957 750.882874,226.860977 
	C763.257263,230.987152 774.815063,237.724228 785.453064,245.601929 
	C815.043945,267.514771 835.883667,296.470428 852.936829,328.648468 
	C856.978882,336.275452 861.650330,343.885254 869.636658,348.639923 
	C874.133118,351.316895 874.453003,355.661774 871.135315,359.416412 
	C870.282410,360.381653 870.138672,361.475189 870.012573,363.041138 
M588.473450,410.316498 
	C587.733887,409.442810 587.843384,407.542603 585.718445,408.129517 
	C584.833008,416.897552 589.577332,422.903290 595.547363,429.363525 
	C596.623779,421.280365 591.187866,416.668762 588.473450,410.316498 
M578.027100,417.233368 
	C577.830505,417.485870 577.604065,417.722046 577.452332,417.999115 
	C577.393738,418.106110 577.458069,418.408325 577.545532,418.448242 
	C579.041199,419.130737 580.621033,419.046417 581.393127,417.598694 
	C582.310242,415.879059 581.683105,413.894043 580.548157,412.526978 
	C579.031738,410.700439 577.746704,412.009033 576.653625,413.355621 
	C577.580017,414.461914 583.021790,413.221283 578.027100,417.233368 
z"/>
</svg>